<svg id="Layer_1" data-name="Layer 1" xmlns="http://www.w3.org/2000/svg" xmlns:xlink="http://www.w3.org/1999/xlink" width="1073.36" height="658.03" viewBox="0 0 1073.36 658.03"><defs><style>.cls-1{fill:#e5e5e5;}.cls-2{fill:#f1f1f1;}.cls-3{fill:#cacaca;}.cls-4{fill:#ffb8b8;}.cls-5{fill:#e4e4e4;}.cls-6{fill:#2f2e41;}.cls-7{fill:url(#linear-gradient);}.cls-8{fill:#9f616a;}.cls-9{fill:#3f3d56;}.cls-10{fill:url(#linear-gradient-2);}.cls-11{fill:url(#linear-gradient-3);}.cls-12{fill:url(#linear-gradient-4);}.cls-13{fill:url(#linear-gradient-5);}.cls-14{fill:#853fc2;}.cls-15{fill:url(#linear-gradient-6);}.cls-16{fill:#e6e6e6;}.cls-17{fill:#ffb6b6;}.cls-18{fill:url(#linear-gradient-7);}.cls-19{fill:#fff;}.cls-20{fill:#f2f2f2;}</style><linearGradient id="linear-gradient" x1="904.32" y1="476.74" x2="970.75" y2="476.74" gradientUnits="userSpaceOnUse"><stop offset="0" stop-color="#c200c6"/><stop offset="1" stop-color="#aa81d6"/></linearGradient><linearGradient id="linear-gradient-2" x1="665.01" y1="417.72" x2="686.92" y2="417.72" xlink:href="#linear-gradient"/><linearGradient id="linear-gradient-3" x1="843.06" y1="428.42" x2="865.3" y2="428.42" xlink:href="#linear-gradient"/><linearGradient id="linear-gradient-4" x1="530.01" y1="439.72" x2="551.92" y2="439.72" xlink:href="#linear-gradient"/><linearGradient id="linear-gradient-5" x1="708.06" y1="450.42" x2="730.3" y2="450.42" xlink:href="#linear-gradient"/><linearGradient id="linear-gradient-6" x1="168.32" y1="457.28" x2="191.11" y2="457.28" xlink:href="#linear-gradient"/><linearGradient id="linear-gradient-7" x1="39.62" y1="269.42" x2="133.02" y2="269.42" xlink:href="#linear-gradient"/></defs><path class="cls-1" d="M1251.77,178.75q0,5.91-.38,11.72A178,178,0,0,1,1234.73,255c-.08.17-.16.35-.24.5-.44,1-.89,1.88-1.37,2.81A179,179,0,0,1,1077,357.54l1.78,101.71,23-12.15,4.12,7.84-27,14.21,3.13,179.41.16,9.44H1064.6l.17-9.44,5.37-291A178.29,178.29,0,0,1,944,302.67c-1.13-1.17-2.23-2.36-3.34-3.56l-.11-.13A178.85,178.85,0,0,1,908,248.57c.17.2.36.38.53.58A178.87,178.87,0,0,1,993.3,18.65c.62-.3,1.26-.6,1.88-.92A179,179,0,0,1,1227.1,88.15c1.08,1.82,2.14,3.7,3.15,5.57A177.83,177.83,0,0,1,1251.77,178.75Z" transform="translate(-178.41 0.03)"/><path class="cls-2" d="M508.27,630.09c-12.94,9.64-16.61,26.62-16.61,26.62S509,658,521.92,648.39s16.6-26.62,16.6-26.62S521.21,620.44,508.27,630.09Z" transform="translate(-178.41 0.03)"/><path class="cls-2" d="M513.66,634.62c-6.22,14.89-21.79,22.56-21.79,22.56s-5.5-16.47.72-31.36,21.8-22.57,21.8-22.57S519.88,619.72,513.66,634.62Z" transform="translate(-178.41 0.03)"/><ellipse class="cls-3" cx="607.21" cy="474.03" rx="110.5" ry="23"/><rect class="cls-3" x="600.71" y="485.31" width="13" height="172"/><path class="cls-4" d="M861.6,463.12a11,11,0,0,1,14.8-4.82,10.35,10.35,0,0,1,1.07.63,10.11,10.11,0,0,1,1.17.9l47.72-11.31,3.52-11.67,19,3.12L945,459.59a11.15,11.15,0,0,1-9.91,8.89l-54,4.76c-.17.32-.35.63-.55.93a11,11,0,0,1-15.24,3.11,10.43,10.43,0,0,1-1-.75,10.75,10.75,0,0,1-1-.92A11,11,0,0,1,861.6,463.12Z" transform="translate(-178.41 0.03)"/><path class="cls-5" d="M965.08,546.2h-48c0,1.38-49.48,2.5-49.48,2.5a12.87,12.87,0,0,0-2.11,2,12.43,12.43,0,0,0-2.9,8v2a12.5,12.5,0,0,0,12.5,12.5h90a12.51,12.51,0,0,0,12.5-12.5v-2A12.52,12.52,0,0,0,965.08,546.2Z" transform="translate(-178.41 0.03)"/><rect class="cls-5" x="734.45" y="572.73" width="13" height="84"/><path class="cls-5" d="M875.86,656.24c0,1.41,19.7.55,44,.55s44,.86,44-.55-19.7-12.54-44-12.54S875.86,654.84,875.86,656.24Z" transform="translate(-178.41 0.03)"/><polygon class="cls-4" points="710.19 645.43 697.93 645.42 692.09 613.63 710.19 613.63 710.19 645.43"/><path class="cls-6" d="M891.72,657.28H852.19v-.5a15.38,15.38,0,0,1,15.39-15.38h24.14Z" transform="translate(-178.41 0.03)"/><path class="cls-6" d="M870.26,625.68l-24.44-54.81a20.07,20.07,0,0,1,8.82-25.78l53-28.43,24.19-2.06,22.31-2,.17.27c.2.35,5,8.63,1.76,17.72-2.46,6.89-8.86,12.28-19,16-23.72,8.7-51.11,16.13-61.79,18.92a3.43,3.43,0,0,0-2.21,1.76,3.55,3.55,0,0,0-.2,2.8l22.71,51a4.5,4.5,0,0,1-2.68,5.78,4.31,4.31,0,0,1-1.13.25l-17,1.24-.43,0A4.5,4.5,0,0,1,870.26,625.68Z" transform="translate(-178.41 0.03)"/><polygon class="cls-4" points="718.19 645.43 705.93 645.42 700.09 613.63 718.19 613.63 718.19 645.43"/><path class="cls-6" d="M899.72,657.28H860.19v-.5a15.38,15.38,0,0,1,15.39-15.38h24.14Z" transform="translate(-178.41 0.03)"/><path class="cls-6" d="M879.26,628.68l-24.44-54.81a20.07,20.07,0,0,1,8.82-25.78l53-28.43,24.19-2.06,17.48-1.51v-.24c.2.35,5,8.63,1.76,17.72-2.46,6.89-3.86,12.28-14,16-23.72,8.7-51.11,16.13-61.79,18.92a3.43,3.43,0,0,0-2.21,1.76,3.55,3.55,0,0,0-.2,2.8l22.71,51a4.5,4.5,0,0,1-2.68,5.78,4.31,4.31,0,0,1-1.13.25l-17,1.24-.43,0A4.5,4.5,0,0,1,879.26,628.68Z" transform="translate(-178.41 0.03)"/><path class="cls-7" d="M925.32,517.09c-1.17-.83-18,8-21,1,14-35,4.35-50.12,12.93-70.19a25,25,0,0,1,16.56-14.18l22.25-1.12.12.06a26,26,0,0,1,14.22,27.58c-.08,21.85-13.15,38.51-8.58,54.35a5.08,5.08,0,0,1-.49,4,4.83,4.83,0,0,1-3.11,2.31L928.84,517a5,5,0,0,1-4-.77Z" transform="translate(-178.41 0.03)"/><circle class="cls-4" cx="770.23" cy="399.76" r="24.56"/><path class="cls-6" d="M956.46,422.27c-1.3.57-4-9.82-2.78-11.9,1.78-3.1,1.68-3.07,2.86-5.12s1.44-4.85-.09-6.65-5.07-1.56-5.77.7c.45-4.29-3.79-7.74-8-8.71s-8.63-.36-12.86-1.22c-4.9-1-10-5.11-8-10.51a7.42,7.42,0,0,1,1.48-2.43c2.26-2.54,5.42-3.63,8.51-4.67,6.43-2.19,13-4.4,19.82-4.16a28.82,28.82,0,0,1,25.45,18.61,26.61,26.61,0,0,1,1.08,4c2.33,12.52-4.94,24.88-16.76,29.65Z" transform="translate(-178.41 0.03)"/><path class="cls-5" d="M593.67,539H631.2c0,1.61,41,2.91,41,2.91a15.09,15.09,0,0,1,2.46,2.33,14.46,14.46,0,0,1,3.38,9.33v2.33a14.56,14.56,0,0,1-14.56,14.56H593.67a14.58,14.58,0,0,1-14.57-14.56v-2.33A14.59,14.59,0,0,1,593.67,539Z" transform="translate(-178.41 0.03)"/><rect class="cls-5" x="442.55" y="569.87" width="15.15" height="87.44"/><path class="cls-5" d="M680.31,655.66c0,1.64-22.95.64-51.27.64s-51.27,1-51.27-.64,23-14.61,51.27-14.61S680.31,654,680.31,655.66Z" transform="translate(-178.41 0.03)"/><polygon class="cls-8" points="512.08 645.7 523.35 645.7 528.72 602.21 512.08 602.21 512.08 645.7"/><path class="cls-6" d="M687.61,642h22.21A14.16,14.16,0,0,1,724,656.14v.46H687.61Z" transform="translate(-178.41 0.03)"/><polygon class="cls-8" points="545.4 645.7 556.68 645.7 562.04 602.21 545.4 602.21 545.4 645.7"/><path class="cls-6" d="M720.93,642h22.21a14.16,14.16,0,0,1,14.15,14.15v.46H720.94Z" transform="translate(-178.41 0.03)"/><path class="cls-8" d="M684.57,508a8.57,8.57,0,0,0-9.58-7.43,8.2,8.2,0,0,0-1.47.32l-12.55-15-11,5.39,18,21A8.62,8.62,0,0,0,684.57,508Z" transform="translate(-178.41 0.03)"/><polygon class="cls-5" points="463.97 418.85 471.33 421.87 473.11 442.66 492.82 496.57 476.08 502.15 457.48 465.98 463.97 418.85"/><circle class="cls-8" cx="444.86" cy="375.21" r="19.6"/><path class="cls-6" d="M620.25,366.06s.86-11.91,11.47-7.05,9.92-8.53,6.71-10.89-3.1-3-14.83-1.37S589.1,351,596.46,374.6,614.67,392,614.67,392s-10-21.15-4.1-17.11L616.5,379l3.13-.67Z" transform="translate(-178.41 0.03)"/><path class="cls-6" d="M591.09,510s-6.58,34.78,18.45,39.21,61.15,7.54,61.15,7.54l16.22,75.69,21.8-1.94s-2.9-91.12-10-98.24-41-28-41-28Z" transform="translate(-178.41 0.03)"/><path class="cls-6" d="M640,495.45l10.94,11s79,12.73,82.08,31c4.6,27.56,10,87.49,10,87.49l-23.76-1.79L710,555l-38-8.65-43.25-23.57Z" transform="translate(-178.41 0.03)"/><path class="cls-5" d="M639.36,411.25,633,402.82l-20.62-.34h0a40.18,40.18,0,0,0-21.29,35.46v53.33s.29,7.1-1.26,23.4c-1.34,14.06,73.5-8.24,73.5-8.24l-9.71-79.15S654.4,414.67,639.36,411.25Z" transform="translate(-178.41 0.03)"/><path class="cls-3" d="M1219,658H467a1,1,0,0,1,0-2h752a1,1,0,0,1,0,2Z" transform="translate(-178.41 0.03)"/><path class="cls-1" d="M852.21,403.43h0a81.16,81.16,0,0,1-.68-17.69l.68-9.78h0C848.44,383.47,849.29,393.36,852.21,403.43Z" transform="translate(-178.41 0.03)"/><path class="cls-1" d="M855.16,405.07h0a59.76,59.76,0,0,1-.33-10.53l.33-5.82h0C853.34,393.19,853.75,399.07,855.16,405.07Z" transform="translate(-178.41 0.03)"/><path class="cls-9" d="M868.24,412.27v3.27a1,1,0,0,1-1,1h-1.64a.32.32,0,0,0-.32.32h0v26.82a1,1,0,0,1-1,1H844.37a1,1,0,0,1-1-1V416.84a.32.32,0,0,0-.32-.32h-2a1,1,0,0,1-1-1v-3.27a1,1,0,0,1,1-1h26.17A1,1,0,0,1,868.24,412.27Z" transform="translate(-178.41 0.03)"/><rect class="cls-10" x="665.01" y="417.23" width="21.91" height="0.98"/><path class="cls-11" d="M865.3,431.64a28.17,28.17,0,0,1-22.24,0v-6.91a35,35,0,0,1,22.24,0Z" transform="translate(-178.41 0.03)"/><path class="cls-1" d="M717.21,425.43h0a81.16,81.16,0,0,1-.68-17.69l.68-9.78h0c-3.77,7.51-2.92,17.4,0,27.47Z" transform="translate(-178.41 0.03)"/><path class="cls-1" d="M720.16,427.07h0a59.76,59.76,0,0,1-.33-10.53l.33-5.82h0C718.34,415.19,718.75,421.07,720.16,427.07Z" transform="translate(-178.41 0.03)"/><path class="cls-9" d="M733.24,434.27v3.27a1,1,0,0,1-1,1h-1.64a.32.32,0,0,0-.32.32h0v26.82a1,1,0,0,1-1,1H709.37a1,1,0,0,1-1-1V438.84a.32.32,0,0,0-.32-.32h-2a1,1,0,0,1-1-1v-3.27a1,1,0,0,1,1-1h26.17A1,1,0,0,1,733.24,434.27Z" transform="translate(-178.41 0.03)"/><rect class="cls-12" x="530.01" y="439.23" width="21.91" height="0.98"/><path class="cls-13" d="M730.3,453.64a28.17,28.17,0,0,1-22.24,0v-6.91a35,35,0,0,1,22.24,0Z" transform="translate(-178.41 0.03)"/><path class="cls-4" d="M902.25,483l-42.68-33.67a9.37,9.37,0,0,1-1,.31,11,11,0,0,1-8.82-1.69,11,11,0,1,1,17-11.54,12,12,0,0,1,.23,1.46l42.48,24.5L920,456.25l11.71,15.33-16.41,11.7A10.94,10.94,0,0,1,902.25,483Z" transform="translate(-178.41 0.03)"/><path class="cls-14" d="M936.93,476.35,912.58,459.8,924,443.59A11.17,11.17,0,0,1,938,440h0a11.16,11.16,0,0,1,5.89,13.28Z" transform="translate(-178.41 0.03)"/><path class="cls-8" d="M717.88,444.67a8.58,8.58,0,0,0-11.58,3.61,9.94,9.94,0,0,0-.58,1.39l-19.51,1.7-1.86,12.11,27.52-2.78a8.62,8.62,0,0,0,6-16Z" transform="translate(-178.41 0.03)"/><path class="cls-5" d="M601.31,426.91,595.79,431s-3.07,7.42,2.94,17.26,44,30.58,44,30.58l61.58-15.73-8.78-17.21-44.87,1.25S625.33,415.54,601.31,426.91Z" transform="translate(-178.41 0.03)"/><ellipse class="cls-15" cx="179.71" cy="457.28" rx="11.4" ry="11.41"/><path class="cls-16" d="M376,495.93H350.12a3.4,3.4,0,0,1,0-6.8H376a3.4,3.4,0,1,1,0,6.8Z" transform="translate(-178.41 0.03)"/><polygon class="cls-17" points="108.81 645.91 120.03 645.91 125.37 602.59 108.81 602.59 108.81 645.91"/><path class="cls-6" d="M284.35,642.21h3.16l12.33-5,6.61,5h0a14.09,14.09,0,0,1,14.09,14.1v.46H284.35Z" transform="translate(-178.41 0.03)"/><polygon class="cls-17" points="7.41 631.31 17.46 636.32 41.54 599.93 26.72 592.54 7.41 631.31"/><path class="cls-6" d="M184.89,626.72l2.83,1.41,13.27,1,3.68,7.45h0a14.11,14.11,0,0,1,6.33,18.9l-.21.41-32.38-16.15Z" transform="translate(-178.41 0.03)"/><path class="cls-6" d="M292.19,449.14,220.84,451l1.24,34.78s-1.24,9.31,1.24,11.79,3.72,2.49,2.48,6.83-4.45,45.88-4.45,45.88-29.28,51.82-28,53.07,2.48,0,1.24,3.1-2.48,1.86-1.24,3.11a45.93,45.93,0,0,1,3.1,3.72h20.23s1.13-6.21,1.13-6.83,1.24-4.35,1.24-5,35.33-38.08,35.33-38.08l7.45-62.1,18,60.85s0,53.4,1.24,54.65,1.24.62.62,3.1-3.1,1.86-1.24,3.73,2.48-1.24,1.86,1.86l-.62,3.1,23.84.27s2.48-5.23,1.24-7.1-1.17-1.35.34-4.4,2.14-3.67,1.52-4.29-.62-3.92-.62-3.92S299,487,299,485.16a6.13,6.13,0,0,1,.52-2.8v-2.53l-2.38-9Z" transform="translate(-178.41 0.03)"/><ellipse class="cls-18" cx="86.32" cy="269.42" rx="46.7" ry="46.74"/><path class="cls-19" d="M254,291.25a3.91,3.91,0,0,1-1.89-.49,3.87,3.87,0,0,1-2-3.44V254.93a3.91,3.91,0,0,1,6-3.3l30.7,16.19a3.92,3.92,0,0,1,0,6.62l-30.7,16.19A3.82,3.82,0,0,1,254,291.25Z" transform="translate(-178.41 0.03)"/><path class="cls-9" d="M270.06,331.58s-23.85-2.38-25.44,0A13.63,13.63,0,0,0,243,338s-9.55,4-11.14,2.39-3.18-6.37-7.95-4.78S210,364.69,210,364.69s.88,0,6,25.78c3.43,17.39,2.87,31.67,3.24,41.4.06,1.6-2.28,7.26-2.23,8.63.2,6.07,2.66,5.55,3,6.47.79,2.39-4,16.71,24.65,16.71s49.29-1.59,49.29-7.16c0-2.81,2.9-4.46,2.31-13.41-.16-2.46-4.39-10.85-4.42-13.46a94.9,94.9,0,0,1,.38-10.12,58.8,58.8,0,0,1,1.73-10c4.77-17.51,6.67-49.24,6.67-49.24l-7.84-15.68-17.12-2.72S274.83,332.38,270.06,331.58Z" transform="translate(-178.41 0.03)"/><ellipse id="f9362fdd-3f27-4fec-a8e4-b8d11fe473ca" class="cls-17" cx="79.34" cy="306.12" rx="20.65" ry="20.67"/><path class="cls-20" d="M356.5,622.54l.62-13.85A44.66,44.66,0,0,1,378,603.41c-10,8.19-8.76,24-15.55,35a26.88,26.88,0,0,1-19.72,12.44L334.32,656a45.09,45.09,0,0,1,9.5-36.54,43.09,43.09,0,0,1,8-7.44C353.82,617.31,356.5,622.54,356.5,622.54Z" transform="translate(-178.41 0.03)"/><path class="cls-4" d="M352.54,452.9a6.51,6.51,0,0,1-6.63-6.4,6.36,6.36,0,0,1,.08-1.15l-36.16-19.81,10.58-5.73L353.92,440a6.56,6.56,0,0,1-1.38,12.95Z" transform="translate(-178.41 0.03)"/><path class="cls-9" d="M339.35,442.61l-27.62-10.12L299.3,420.83l-3.08-1.58-10.64-7.47,0-.1-16.9-50a16.38,16.38,0,0,1,12.11-18.94h0a16.36,16.36,0,0,1,19.82,11.93,17.9,17.9,0,0,1,.35,1.89l5.44,42.87,16,14.55,3.94.77.91,4.25,18.25,13.17Z" transform="translate(-178.41 0.03)"/><path class="cls-4" d="M231,243.53a6.51,6.51,0,0,1-6.35,6.67,6.29,6.29,0,0,1-1.15-.07l-19.62,36.28-5.77-10.56,19.95-33.63A6.55,6.55,0,0,1,231,243.53Z" transform="translate(-178.41 0.03)"/><path class="cls-9" d="M233.81,344.67l-12.3-17.91s1.94.12.71-3.89c-.33-1.09-3.55-4.86-3.91-6.16-.32-1.15-.65-2.38-1-3.67-1.17-4.63-7.52-8.91-6.42-14.57,5.22-27,7.83-32.24,8.63-36.56,0,0-4.54-16.85-11.91-6.45s-19,36.86-16,50,14.91,56,18.55,59.22S233.81,344.67,233.81,344.67Z" transform="translate(-178.41 0.03)"/><path class="cls-6" d="M272.73,281.65c-1.53,0-1-2.93-2.23-3.85l0,.08a3,3,0,0,1-5.74.24,4.59,4.59,0,0,0-2.9-3c-.08,2.68-2.1,5-4.51,6.15a18.57,18.57,0,0,1-7.83,1.39,34.44,34.44,0,0,0-8,.6,9.13,9.13,0,0,0-6.22,4.63c-1.11,2.44-.32,5.79,2.11,6.92a4.77,4.77,0,0,0-4.12,3.32,13.28,13.28,0,0,0-.41,5.57c.53,6.91,1.82,14.34,6.84,19.11,3.83,3.63,9.31,5.09,14.58,5.07s4.35-.51,9.45-1.86c0,0,4.85-13.91,3.63-15.27a6.6,6.6,0,0,1-2-4.94c.23-1.83,2.18-3.46,3.88-2.76-.29-.73-.5-.87-.64-.84.09-.2.16-.42.23-.63a7.17,7.17,0,0,1,4.5-4.78,5.58,5.58,0,0,1,6.12,1.85C285,293.37,281.57,281.91,272.73,281.65Z" transform="translate(-178.41 0.03)"/></svg>